/* XPM */
static char *binary[] = {
/* columns rows colors chars-per-pixel */
"24 24 149 2 ",
"   c gray3",
".  c gray5",
"X  c #101010",
"o  c #111111",
"O  c gray7",
"+  c gray8",
"@  c #181818",
"#  c #191919",
"$  c gray10",
"%  c #1B1B1B",
"&  c gray11",
"*  c #1D1D1D",
"=  c #1E1E1E",
"-  c gray12",
";  c gray13",
":  c #232323",
">  c gray14",
",  c #252525",
"<  c gray15",
"1  c #272727",
"2  c #282828",
"3  c gray16",
"4  c #2A2A2A",
"5  c gray17",
"6  c #2C2C2C",
"7  c #2D2D2D",
"8  c gray18",
"9  c #2F2F2F",
"0  c #313131",
"q  c #323232",
"w  c gray20",
"e  c #343434",
"r  c gray21",
"t  c #373737",
"y  c gray22",
"u  c #393939",
"i  c gray23",
"p  c gray24",
"a  c #3E3E3E",
"s  c gray25",
"d  c gray26",
"f  c #434343",
"g  c #444444",
"h  c #484848",
"j  c gray29",
"k  c #4E4E4E",
"l  c gray31",
"z  c #515151",
"x  c gray32",
"c  c gray33",
"v  c #555555",
"b  c #565656",
"n  c gray34",
"m  c #585858",
"M  c gray35",
"N  c #5A5A5A",
"B  c gray36",
"V  c #5D5D5D",
"C  c #606060",
"Z  c gray38",
"A  c #626262",
"S  c gray39",
"D  c #646464",
"F  c #656565",
"G  c gray40",
"H  c #676767",
"J  c #686868",
"K  c DimGray",
"L  c #6A6A6A",
"P  c #6C6C6C",
"I  c #6D6D6D",
"U  c #717171",
"Y  c #747474",
"T  c gray46",
"R  c #777777",
"E  c gray47",
"W  c #797979",
"Q  c gray48",
"!  c #7B7B7B",
"~  c gray49",
"^  c #7E7E7E",
"/  c #868686",
"(  c #888888",
")  c #898989",
"_  c #8D8D8D",
"`  c #8E8E8E",
"'  c gray56",
"]  c gray57",
"[  c #939393",
"{  c #959595",
"}  c #979797",
"|  c #9A9A9A",
" . c #9B9B9B",
".. c gray61",
"X. c gray62",
"o. c gray63",
"O. c #A5A5A5",
"+. c gray65",
"@. c #A7A7A7",
"#. c gray66",
"$. c #A9A9A9",
"%. c #AAAAAA",
"&. c gray67",
"*. c #ACACAC",
"=. c gray68",
"-. c #AFAFAF",
";. c #B2B2B2",
":. c gray70",
">. c gray71",
",. c #B6B6B6",
"<. c gray72",
"1. c #B9B9B9",
"2. c gray73",
"3. c #BBBBBB",
"4. c gray74",
"5. c gray",
"6. c gray75",
"7. c gray77",
"8. c #C6C6C6",
"9. c gray78",
"0. c #C8C8C8",
"q. c #CBCBCB",
"w. c gray80",
"e. c #CDCDCD",
"r. c #CECECE",
"t. c gray81",
"y. c #D0D0D0",
"u. c #D2D2D2",
"i. c LightGray",
"p. c gray83",
"a. c #D5D5D5",
"s. c gray84",
"d. c #D8D8D8",
"f. c #DADADA",
"g. c #DDDDDD",
"h. c #DFDFDF",
"j. c gray88",
"k. c #E1E1E1",
"l. c #E2E2E2",
"z. c gray89",
"x. c #E4E4E4",
"c. c #E6E6E6",
"v. c #E7E7E7",
"b. c gray91",
"n. c #E9E9E9",
"m. c #EAEAEA",
"M. c gray92",
"N. c #ECECEC",
"B. c None",
/* pixels */
"B.B.B.B.B.B.B.B.B.B.B.B.B.B.B.B.B.B.B.B.B.B.B.B.",
"B.B.B.} q.B.B.B.B.B.B.B.B.B.B.B.B.B.B.B.B.B.B.B.",
"B.^ 0   6.B.B.B.q.m.B.B.B.B.B.B.B.B.B.B.B.B.B.B.",
"h.L Z 0 m.B.6.Z + q.B.B.B.B.B.B.B.B.B.B.B.B.B.B.",
"B.B.} x B.s.g > 6 B.B.m. .x h.B.B.B.B.B.B.B.B.B.",
"B.B.l ` B.B.B.Z x B.q.6   0 B.B.m.^ Z 9.B.B.B.B.",
"B.z.0 q.B.B.B.6 } B.h.6.V Z B.B.l u Z > q.B.B.B.",
"B.@.0 B.B.B.9.@ q.B.B.B.u @.B.@.> B.B.x L B.B.9.",
"B. .^ B.B.B.` 0 B.B.B.s.> h.B.Z Y B.B.x Y B.V + ",
"B.B.B.B.B.B.x L B.B.B.} u B.B.0 %.B.B.g %.B.6.} ",
"B.B.B.B.B.B.s.z.B.B.B.x Y B.m.@ q.B.9.6 h.B.B.Y ",
"B.B.B.B.B.B.B.B.B.B.B.@.s.B.B.0 Y h.g V B.B.B.0 ",
"B.B.B.B.B.B.B.B.B.B.B.B.B.B.B.:.6 6 l z.B.B.h.+ ",
" .h.B.B.B.B.B.B.B.B.B.B.B.B.B.B.z.h.B.B.B.B. .@ ",
"0 6 h.B.B.B.B.B.B.B.B.B.B.B.B.B.B.B.B.B.B.B.6. .",
"B.l Y B.%.u u 6.B.B.B.B.B.B.B.B.B.B.B.B.B.B.B.B.",
"B.Z Z 6.@  .Y > z.B.B.B.s.B.B.B.B.B.B.B.B.B.B.B.",
"B.x ` V L B.B.> :.B.q.Y + q.B.B.B.B.B.B.B.B.B.B.",
"h.6 %.g q.B.z.6 9.s.0 @ > B.B.s.l 0 } B.B.B.B.B.",
"^ g :.0 m.B.6.0 m.B.z.V V B.m.> Z  .@ :.B.B.@.6.",
"6 q.:.0 B.B.Z x B.B.B.>  .B.` 6 B.B.x Y m.g 0 @ ",
"s.B.s.@ ^ } @ 6.B.B.q.+ z.B.x ` B.B.x ` ^ 0 B.s.",
"B.B.B.%.u g %.B.B.B.` 6 B.B.0 :.B.B.u %.u %.B.B.",
"B.B.B.B.B.B.B.B.B.B.g L B.z.@ q.B.:.0 :.u z.B.q."
};
