/* XPM */
static char *binary[] = {
/* columns rows colors chars-per-pixel */
"24 24 88 1 ",
"  c #090909",
". c gray10",
"X c #848484",
"o c gray52",
"O c #868686",
"+ c gray53",
"@ c gray54",
"# c #8B8B8B",
"$ c #8D8D8D",
"% c gray56",
"& c #909090",
"* c gray57",
"= c #959595",
"- c gray59",
"; c #979797",
": c gray61",
"> c #A0A0A0",
", c gray68",
"< c gray69",
"1 c #B1B1B1",
"2 c #B4B4B4",
"3 c gray71",
"4 c #B6B6B6",
"5 c gray72",
"6 c #B9B9B9",
"7 c gray73",
"8 c #BBBBBB",
"9 c #BCBCBC",
"0 c gray74",
"q c gray",
"w c #C0C0C0",
"e c gray76",
"r c gray77",
"t c #C6C6C6",
"y c gray78",
"u c #C8C8C8",
"i c #CACACA",
"p c #CBCBCB",
"a c gray80",
"s c #CDCDCD",
"d c #CECECE",
"f c gray81",
"g c #D0D0D0",
"h c gray82",
"j c #D2D2D2",
"k c LightGray",
"l c gray83",
"z c gray84",
"x c #D7D7D7",
"c c #D8D8D8",
"v c gray85",
"b c #DADADA",
"n c gray86",
"m c gainsboro",
"M c gray87",
"N c #DFDFDF",
"B c gray88",
"V c #E1E1E1",
"C c #E2E2E2",
"Z c gray89",
"A c #E4E4E4",
"S c gray90",
"D c #E6E6E6",
"F c #E7E7E7",
"G c #E9E9E9",
"H c #EAEAEA",
"J c gray92",
"K c #ECECEC",
"L c gray93",
"P c #EEEEEE",
"I c #EFEFEF",
"U c gray94",
"Y c #F1F1F1",
"T c gray95",
"R c #F3F3F3",
"E c #F4F4F4",
"W c gray96",
"Q c #F6F6F6",
"! c gray97",
"~ c #F8F8F8",
"^ c #F9F9F9",
"/ c gray98",
"( c #FBFBFB",
") c gray99",
"_ c #FDFDFD",
"` c #FEFEFE",
"' c gray100",
"] c None",
/* pixels */
"]]]]]]]]]]]]]]]]]]]]]]]]",
"]]]]]]]]]]]]]]]]]]]]]]]]",
"]]dACAACCACAACCACAACAd]]",
"]]ddCCCCCCCCCCCCCCCCdd]]",
"]]iqqU^^'^''''^'^^Uqqi]]",
"]]dqqQPQQ^''''^QQUQqqd]]",
"]]dqeQPUU^'''^^QUUQqqd]]",
"]]deeQPUQ^^'''^UUPQeed]]",
"]]jreQPPU^^''^^UUPQrrj]]",
"]]jrrQHPU^i:r^e;6HUrrj]]",
"]]jriUHPUQ>';^&U#HQrij]]",
"]]jddUAPUQr;&###4HUdij]]",
"]]lddUAHUU^^#Q+PHAUddl]]",
"]]ldjUAHPUe&##X+1CUjjl]]",
"]]vjjUAHPU;^#Q+H+CUjjl]]",
"]]vllPCAPUq#6Q1+,CUllv]]",
"]]vlvUCAHUQQ^UPHACPllv]]",
"]]NvvlUUQQ^^'^^QUPvvvN]]",
"]]Nvi6666q666666666ivN]]",
"]]Nv4446444444446444vC]]",
"].N111111111111111111N.]",
"]]:644444444444444446:]]",
"]]]                  ]]]",
"]]]]]]]]]]]]]]]]]]]]]]]]"
};
