/* XPM */
static char *binary[] = {
/* columns rows colors chars-per-pixel */
"24 24 190 2 ",
"   c black",
".  c #010101",
"X  c #060606",
"o  c #070707",
"O  c #101010",
"+  c #131313",
"@  c #151515",
"#  c #161616",
"$  c #181818",
"%  c #191919",
"&  c gray11",
"*  c #1D1D1D",
"=  c #1E1E1E",
"-  c #202020",
";  c #222222",
":  c #232323",
">  c gray14",
",  c #252525",
"<  c gray15",
"1  c #2A2A2A",
"2  c gray17",
"3  c #2C2C2C",
"4  c #2D2D2D",
"5  c gray18",
"6  c #2F2F2F",
"7  c gray19",
"8  c #313131",
"9  c #343434",
"0  c #353535",
"q  c gray21",
"w  c #373737",
"e  c gray22",
"r  c #393939",
"t  c #3A3A3A",
"y  c gray23",
"u  c #3C3C3C",
"i  c gray24",
"p  c #3E3E3E",
"a  c #3F3F3F",
"s  c gray25",
"d  c #414141",
"f  c gray26",
"g  c #444444",
"h  c gray27",
"j  c #464646",
"k  c gray28",
"l  c #484848",
"z  c #4B4B4B",
"x  c gray30",
"c  c #505050",
"v  c gray33",
"b  c gray34",
"n  c #585858",
"m  c #5A5A5A",
"M  c #5B5B5B",
"N  c gray36",
"B  c #5D5D5D",
"V  c gray37",
"C  c gray39",
"Z  c #646464",
"A  c #656565",
"S  c #676767",
"D  c DimGray",
"F  c gray42",
"G  c #6D6D6D",
"H  c gray43",
"J  c #6F6F6F",
"K  c #717171",
"L  c #727272",
"P  c gray45",
"I  c #747474",
"U  c gray46",
"Y  c #777777",
"T  c gray47",
"R  c #797979",
"E  c gray48",
"W  c #7C7C7C",
"Q  c gray49",
"!  c #7E7E7E",
"~  c gray50",
"^  c #808080",
"/  c #818181",
"(  c gray51",
")  c #838383",
"_  c #848484",
"`  c gray52",
"'  c #868686",
"]  c gray53",
"[  c #898989",
"{  c gray54",
"}  c gray55",
"|  c #8D8D8D",
" . c #8E8E8E",
".. c gray56",
"X. c #909090",
"o. c gray57",
"O. c #929292",
"+. c #939393",
"@. c gray58",
"#. c #959595",
"$. c gray59",
"%. c #979797",
"&. c #989898",
"*. c gray60",
"=. c #9A9A9A",
"-. c #9B9B9B",
";. c gray61",
":. c #9D9D9D",
">. c #9F9F9F",
",. c #A0A0A0",
"<. c gray63",
"1. c gray64",
"2. c #A4A4A4",
"3. c #A5A5A5",
"4. c gray65",
"5. c #A7A7A7",
"6. c #A9A9A9",
"7. c #AAAAAA",
"8. c gray67",
"9. c #ACACAC",
"0. c gray68",
"q. c #AEAEAE",
"w. c #AFAFAF",
"e. c #B1B1B1",
"r. c #B2B2B2",
"t. c #B4B4B4",
"y. c gray71",
"u. c #B6B6B6",
"i. c #B7B7B7",
"p. c gray72",
"a. c #B9B9B9",
"s. c #BBBBBB",
"d. c gray74",
"f. c gray",
"g. c gray75",
"h. c #C0C0C0",
"j. c #C1C1C1",
"k. c #C3C3C3",
"l. c gray77",
"z. c #C5C5C5",
"x. c #C6C6C6",
"c. c gray78",
"v. c #C8C8C8",
"b. c gray79",
"n. c #CACACA",
"m. c #CBCBCB",
"M. c gray80",
"N. c #CDCDCD",
"B. c #CECECE",
"V. c gray81",
"C. c #D0D0D0",
"Z. c gray82",
"A. c #D2D2D2",
"S. c LightGray",
"D. c gray84",
"F. c #D7D7D7",
"G. c gray85",
"H. c #DADADA",
"J. c gray86",
"K. c #DDDDDD",
"L. c gray87",
"P. c #DFDFDF",
"I. c gray88",
"U. c #E1E1E1",
"Y. c #E2E2E2",
"T. c gray89",
"R. c #E6E6E6",
"E. c #E7E7E7",
"W. c gray91",
"Q. c #E9E9E9",
"!. c #EAEAEA",
"~. c #ECECEC",
"^. c gray93",
"/. c #EEEEEE",
"(. c gray94",
"). c #F1F1F1",
"_. c gray95",
"`. c #F3F3F3",
"'. c #F4F4F4",
"]. c gray96",
"[. c #F6F6F6",
"{. c gray97",
"}. c #F8F8F8",
"|. c #F9F9F9",
" X c gray98",
".X c #FBFBFB",
"XX c gray99",
"oX c #FDFDFD",
"OX c #FEFEFE",
"+X c gray100",
/* pixels */
"OXOXY.b.7 w.u.7.OXOX7.[ h y Q.C.n OXe.L OXOXOXo.",
"[.OX5 OXl.7 e.w.e.w.( l   J w.H.j.T w.S OX|.o.( ",
"OXOXw.b OXl.5 a.e.( y ;.$.5 b.-.P.b.b ^.OXo.( 5 ",
"Y.;.$ S OXOXu.+ f.s o.OXOXo.y b.;.C.OXOXo.' 7 O ",
"! * f.OX[.OXw.+ O 3.OX|.[.OX$.p l.1.f.$.( <   3.",
"OX7.).OXOXw.' 0 $.D.-.OXOX|.OX .h b.1.I 7 l.C l ",
"Q.OXOXOX7.( p o.OXy ^.x b.OX|.OXD y u.7 l.OXOXS ",
"$.H.OXw.' h - u.^.[ S H.y OXOX|.(   1 b.OX[.|.OX",
"l.1.-.( x   < l.1.Q.).! f.OXOXo.' - l.OXJ OXOX|.",
"T l.o.0 -.OX0  .j.;.OX^.OX|.$.( 5 M.OX7.< o.H.OX",
"  ( l -.OXOX[.p [ l.-.OXOXo.' - l C.H.L < B f.OX",
"l   7.OX[.OXOX[.0 ' j.;.$.T y   D a.w.OXx OXOXOX",
"l o.Q.p ( OXOXOX).p $.l.! 0 C.H.5 e.e.7.OX|.OX^.",
"S OX5 P.I L |.[.OXb.  $.y b.OXOXb.7 w.w.w.OXY.( ",
"w.b.H.s T.D.).OXOX;.- o H.OX|.[.OXb.1 w.u.;. .J ",
"l.;.Y.l.;.OXOX|.$.! p l.u.o j.OX).OXj.p u.a.C p ",
"s l.;.M.OXOX|.$.' 1 7.OXw.! 3.3.OX).OXT $  .s [.",
" .p b.1.l.OX$.! + < u.H.OXI * l.OXOXT.'   7 OXOX",
"OX$.y j.1.' T h < * M.$.Y.OXQ.OXOXQ.' J s [.OX|.",
"|.OX$.h b.$.7 M.OXC S M.-.Y.OXOXY.[ J h [.OX|.OX",
"OXOXOX  v s l.OX|.OXB B M.$.T.^.[ D p [.OXOXOXOX",
"OX|.;.n   C.OX|.OXOXOXB B b.-.' D s ).OX|.OXOXOX",
"OX$.T y D.OX|.OXOXOXOXOXS D C.L h |.OX|.OXOXOXOX",
"o.! 0 l.OX|.OXOXOXOX|.OXC.  J s ).OXOXOXOXOXOXOX"
};
