/* XPM */
static char *cider[] = {
/* columns rows colors chars-per-pixel */
"24 24 106 2 ",
"   c #57AB22",
".  c #5EAE2C",
"X  c #60AF2F",
"o  c #61B02F",
"O  c #63B132",
"+  c #6AB43B",
"@  c #6EB640",
"#  c #73B947",
"$  c #75BA4A",
"%  c #7CBE53",
"&  c #8BDA3E",
"*  c #82BF5A",
"=  c #8EDB43",
"-  c #90DC46",
";  c #94DD4C",
":  c #99DE55",
">  c #9CDF5A",
",  c #9EE05E",
"<  c #86C360",
"1  c #8AC465",
"2  c #8DC569",
"3  c #98CB78",
"4  c #ABE473",
"5  c #B1E67C",
"6  c #547ED7",
"7  c #5780D7",
"8  c #5982D8",
"9  c #6087D9",
"0  c #6389DA",
"q  c #6A8EDC",
"w  c #6E92DD",
"e  c #7396DE",
"r  c #7799DF",
"t  c #7E9DE1",
"y  c #A2D086",
"u  c #A5D289",
"i  c #A8D38D",
"p  c #ADD694",
"a  c #B3D99B",
"s  c #B6E885",
"d  c #B9E88A",
"f  c #BFEB94",
"g  c #BBDDA5",
"h  c #C3EC9B",
"j  c #C7EDA2",
"k  c #C9EEA4",
"l  c #C0E0AD",
"z  c #CAEEA8",
"x  c #C4E2B2",
"c  c #CDE6BE",
"v  c #D2F1B3",
"b  c #809FE1",
"n  c #84A2E2",
"m  c #92ADE5",
"M  c #9EB5E8",
"N  c #87AEFD",
"B  c #8EB2FD",
"V  c #91B4FE",
"C  c #9CBCFE",
"Z  c #A0B7E9",
"A  c #AABFEB",
"S  c #ADC1EC",
"D  c #B5C7ED",
"F  c #B9CAEF",
"G  c #A7C3FF",
"H  c #A9C5FF",
"J  c #B4CCFF",
"K  c #B9CFFF",
"L  c #BDD2FE",
"P  c #D1E7C2",
"I  c #D3E9C6",
"U  c #D6EAC9",
"Y  c #DDF4C5",
"T  c #DDEDD4",
"R  c #E2F5CE",
"E  c #E6F8CD",
"W  c #E2EFDB",
"Q  c #E5F7D3",
"!  c #E1F0D8",
"~  c #C4D3F1",
"^  c #CED9F3",
"/  c #C1D5FF",
"(  c #C6D8FF",
")  c #CADBFE",
"_  c #D2DCF4",
"`  c #D7E0F6",
"'  c #DCE4F5",
"]  c #D5E3FD",
"[  c #EBF5E5",
"{  c #EFFAE5",
"}  c #EDF5E9",
"|  c #EFF8EA",
" . c #F1FBE4",
".. c #F0F7EB",
"X. c #F2FAEC",
"o. c #E0E7F6",
"O. c #E3ECFF",
"+. c #E9EEFB",
"@. c #EEF3FD",
"#. c #F0F7F4",
"$. c #F5FAF2",
"%. c #F8FCF5",
"&. c #F4F7FC",
"*. c #F7F9FD",
"=. c #FEFEFE",
"-. c None",
/* pixels */
"-.-.-.-.-.-.-.-.-.=.=.&.=.=.=.-.-.-.-.-.-.-.-.-.",
"-.-.-.-.-.-.=.=._ S m n b m A ^ *.=.-.-.-.-.-.-.",
"-.-.-.-.-.=.~ e 7 7 7 7 7 7 6 7 e D =.-.-.-.-.-.",
"-.-.-.-.=.m 6 7 7 7 7 7 7 7 7 7 7 7 n &.=.-.-.-.",
"-.-.-.*.M w r w 7 6 7 0 0 7 6 7 7 7 6 b &.-.-.-.",
"-.-.=.+._ &.*.+.~ S _ ' o._ S 0 6 7 7 6 n =.-.-.",
"-.=.=.=.=.! U | =.=.] H H / @.&.t 6 7 7 7 S =.-.",
"-.=.=.x +   $ $.Y  .*.V B B B ( =.n 6 7 7 w @.-.",
"-.=.i . O + } v & , $.( B V B B / =.0 6 7 7 ~ -.",
"=.U + O . i X.= - = f +.V V V B B +.D 6 7 6 M =.",
"=.y . O O U j = - - ; $.G V V B N K ' 9 7 6 n =.",
"$.2 X O @ T 4 = - - ; { K B V V B C +.q 7 7 r &.",
"%.2 O O # ! 4 = - = d  .] V V V B C +.q 7 6 e &.",
"%.3 . O O U h & - - $.5 { V B V B J ' 9 7 6 n =.",
"=.a . O o p { - & z E = E ( B B N O.F 6 7 7 D =.",
"-.U O O O + $.k ; $.4 & h =.C N L =.w 6 6 n &.=.",
"-.$.% O O . < =.Q =.= = ; $.@.( =.n 6 w F *.=.-.",
"-.=.g O O O . 2 ..=.s > : j =.=.=.=.=.=.=.=.=.-.",
"-.-.=.2 . o O . $ g T [ } T g i x P c l P =.-.-.",
"-.-.-.$.< . O O X . + # $ + o . . O o % [ =.-.-.",
"-.-.-.=.$.2 O O O O O O O O O O O X * X.=.-.-.-.",
"-.-.-.-.-.=.a $ O . X O o o . O $ i =.=.-.-.-.-.",
"-.-.-.-.-.-.=.X.c y 2 % % 2 y x [ =.-.-.-.-.-.-.",
"-.-.-.-.-.-.-.-.-.=.%.$.$.$.=.=.-.-.-.-.-.-.-.-."
};
