/* XPM */
static char * C:\Users\jim_cheung\Desktop\fire_xpm[] = {
"43 15 274 2",
"  	c None",
". 	c #522244",
"+ 	c #BF1119",
"@ 	c #A70E15",
"# 	c #A00E14",
"$ 	c #2F2F00",
"% 	c #2C2C00",
"& 	c #2D2D00",
"* 	c #333300",
"= 	c #9D0E14",
"- 	c #A40E15",
"; 	c #F52A02",
"> 	c #C42101",
", 	c #6E6E00",
"' 	c #7A7A00",
") 	c #FFFF00",
"! 	c #848400",
"~ 	c #787800",
"{ 	c #BD2001",
"] 	c #FC7800",
"^ 	c #B95800",
"/ 	c #868600",
"( 	c #929200",
"_ 	c #B25500",
": 	c #FC7F08",
"< 	c #FDBA4D",
"[ 	c #FE1700",
"} 	c #FC7200",
"| 	c #FD4200",
"1 	c #FBA500",
"2 	c #976300",
"3 	c #B4B400",
"4 	c #000000",
"5 	c #1C1C00",
"6 	c #ECEC00",
"7 	c #905F00",
"8 	c #FCA500",
"9 	c #FFFF9C",
"0 	c #FCBE2C",
"a 	c #FD3200",
"b 	c #FC9F00",
"c 	c #FF0000",
"d 	c #FD2F00",
"e 	c #FC5900",
"f 	c #FB9200",
"g 	c #F0D300",
"h 	c #C8B000",
"i 	c #737300",
"j 	c #CAB100",
"k 	c #FDFA8A",
"l 	c #FAF16B",
"m 	c #FFFF9D",
"n 	c #FD0F00",
"o 	c #FF1700",
"p 	c #FF3700",
"q 	c #FF5800",
"r 	c #FF0400",
"s 	c #B4BF00",
"t 	c #9AA400",
"u 	c #6F6F00",
"v 	c #6C6C00",
"w 	c #3F3F00",
"x 	c #000017",
"y 	c #535314",
"z 	c #919110",
"A 	c #7F8605",
"B 	c #FFFFA0",
"C 	c #EFF17E",
"D 	c #868F00",
"E 	c #47473B",
"F 	c #757C17",
"G 	c #42483A",
"H 	c #6F7982",
"I 	c #B5BF00",
"J 	c #CE7A00",
"K 	c #FFE406",
"L 	c #FFFF2C",
"M 	c #FFC520",
"N 	c #FFF73D",
"O 	c #FFF23C",
"P 	c #FF6501",
"Q 	c #FF0500",
"R 	c #C09F00",
"S 	c #E34700",
"T 	c #E63E00",
"U 	c #D17400",
"V 	c #4D9801",
"W 	c #428201",
"X 	c #B1B000",
"Y 	c #BABA15",
"Z 	c #7C8186",
"` 	c #B3B338",
" .	c #313153",
"..	c #464643",
"+.	c #A4A461",
"@.	c #305E02",
"#.	c #242422",
"$.	c #44443A",
"%.	c #46473A",
"&.	c #070B13",
"*.	c #6E777C",
"=.	c #8A989D",
"-.	c #479339",
";.	c #F58C27",
">.	c #FFFFA2",
",.	c #FFFFE6",
"'.	c #FFFF80",
").	c #FFF83B",
"!.	c #FFE435",
"~.	c #FF2900",
"{.	c #CE4600",
"].	c #CD2A00",
"^.	c #B34000",
"/.	c #A64C00",
"(.	c #4E9802",
"_.	c #2CCB13",
":.	c #24A70F",
"<.	c #858500",
"[.	c #909000",
"}.	c #BBBB00",
"|.	c #60602D",
"1.	c #606023",
"2.	c #555520",
"3.	c #585818",
"4.	c #151528",
"5.	c #2A2A2E",
"6.	c #4D4F4C",
"7.	c #7E7D40",
"8.	c #383849",
"9.	c #36363B",
"0.	c #0F0F1B",
"a.	c #000020",
"b.	c #383831",
"c.	c #020213",
"d.	c #18192A",
"e.	c #04070B",
"f.	c #363C3F",
"g.	c #646D6C",
"h.	c #60767C",
"i.	c #6B8696",
"j.	c #607D52",
"k.	c #42555D",
"l.	c #FFFFDE",
"m.	c #FFFFE0",
"n.	c #FFFFE3",
"o.	c #FFAF3E",
"p.	c #FFFF48",
"q.	c #FF920E",
"r.	c #FF7000",
"s.	c #FF6B00",
"t.	c #FF6500",
"u.	c #FF0A00",
"v.	c #B34806",
"w.	c #20D15C",
"x.	c #106E30",
"y.	c #1D1D3E",
"z.	c #171734",
"A.	c #191935",
"B.	c #04041D",
"C.	c #636377",
"D.	c #424251",
"E.	c #343336",
"F.	c #2C2D32",
"G.	c #34343F",
"H.	c #3C3C45",
"I.	c #9898AF",
"J.	c #3D3D10",
"K.	c #A5A600",
"L.	c #C8C900",
"M.	c #171A00",
"N.	c #414D40",
"O.	c #8B2320",
"P.	c #668E3E",
"Q.	c #DCF750",
"R.	c #FFF9CE",
"S.	c #FFFFD9",
"T.	c #FFFFE7",
"U.	c #FFAA6D",
"V.	c #FFF641",
"W.	c #FF7D02",
"X.	c #FFFF60",
"Y.	c #FF6900",
"Z.	c #FF4500",
"`.	c #35BC52",
" +	c #22CE5A",
".+	c #0EA7CB",
"++	c #086479",
"@+	c #1F1F25",
"#+	c #0A0A25",
"$+	c #0B0B22",
"%+	c #0E0E25",
"&+	c #020200",
"*+	c #292933",
"=+	c #404047",
"-+	c #56565D",
";+	c #58585F",
">+	c #0EA6CB",
",+	c #A23F4E",
"'+	c #1C9DBF",
")+	c #F7FC52",
"!+	c #FFFFC6",
"~+	c #FFFF47",
"{+	c #FFFF5F",
"]+	c #FF8B0D",
"^+	c #CE2128",
"/+	c #616D84",
"(+	c #626C84",
"_+	c #1E7FF7",
":+	c #1E80F7",
"<+	c #104688",
"[+	c #BDBD00",
"}+	c #343400",
"|+	c #454500",
"1+	c #3A3A00",
"2+	c #D2D200",
"3+	c #DADA00",
"4+	c #01011D",
"5+	c #5C5C64",
"6+	c #2B2B32",
"7+	c #338BF5",
"8+	c #C32241",
"9+	c #FFE400",
"0+	c #FF5A04",
"a+	c #EEC934",
"b+	c #E3671E",
"c+	c #CD1C36",
"d+	c #585EB7",
"e+	c #933D76",
"f+	c #5247F7",
"g+	c #342D9C",
"h+	c #8B8B00",
"i+	c #9E9E00",
"j+	c #9C9C00",
"k+	c #AAAA00",
"l+	c #888800",
"m+	c #000004",
"n+	c #323238",
"o+	c #5A5A60",
"p+	c #5954A7",
"q+	c #8F87D6",
"r+	c #AEA9C5",
"s+	c #B9B4BF",
"t+	c #C7C3B7",
"u+	c #6F66E6",
"v+	c #AF2071",
"w+	c #B04070",
"x+	c #9D358B",
"y+	c #A6247D",
"z+	c #AE2072",
"A+	c #AA2278",
"B+	c #5536D9",
"C+	c #452BB0",
"D+	c #472DB5",
"E+	c #482DB7",
"F+	c #492EBA",
"G+	c #492EBC",
"H+	c #492EBB",
"I+	c #4C30C3",
"J+	c #332A5F",
"K+	c #303034",
"L+	c #333338",
"M+	c #6245D4",
"N+	c #E7E3A2",
"O+	c #7157CE",
"P+	c #7C64C9",
"Q+	c #5D3FD5",
"R+	c #7C29A6",
"S+	c #6730C2",
"T+	c #5834D4",
"U+	c #7B29A8",
"V+	c #263498",
"W+	c #FFFF97",
"X+	c #BABE98",
"Y+	c #F0F19A",
". . . . . . . . . . . . . . . . . . . . . . . . . . . . . . . . . . . . . . . . . . . ",
"+ + + + @ # $ % & * = - + + + + + + + + + + + + + + + + + + + + + + + + + + + + + + + ",
"; ; ; > , ' ) ) ) ) ! ~ { ; ; ; ; ; ; ; ; ; ; ; ; ; ; ; ; ; ; ; ; ; ; ; ; ; ; ; ; ; ; ",
"] ] ^ / ) ) ) ) ) ) ) ) ( _ ] ] ] : < ] ] ] ] ] ] ] ] [ } | ] ] ] ] ] ] ] ] ] ] ] ] ] ",
"1 1 2 3 ) ) ) ) ) % 4 5 6 7 8 1 8 9 9 0 1 1 1 8 a b c c d e f c 8 1 8 1 1 1 1 1 8 1 8 ",
"g h i ) ) ) 6 4 4 4 4 4 4 4 j g g k g l m g g g g n c c o p q r g c g g g g g g g g g ",
"s t u ) ) ) ) ) ) v w x y z A B C D E F s G H I J c K L M N O P Q R S T U s s s I s s ",
"V W u ) ~ ) ) ) ) X Y Z `  ...+.@.#.$.%.&.G *.=.-.;.>.,.m '.).o !.~.{.].c ^./.(.(.(.(.",
"_.:.<.[.}.|.1.2.3.4.5.6.7.8.9.0.a.b.c.d.e.f.g.h.i.j.k.l.m.n.o.p.q.r.s.t.u.c c v._._._.",
"w.w.x.4 ) y.z.A.B.C.D.E.F.G.H.I.) J.K.L.M.4 N.O.P.Q.R.S.T.U.V.W.X.Y.Z.c `.c w. +w.w.w.",
".+.+++4 ) @+#+$+%+4 4 &+*+=+-+;+4 4 4 4 4 >+.+.+,+'+)+!+~+{+]+.+q ^+/+(+.+.+>+.+.+>+.+",
"_+:+:+<+[+) }+|+1+2+) 3+4+5+6+:+:+_+_+:+7+_+:+:+:+8+_+9+0+a+c b+c+d+e+_+:+:+_+:+:+:+:+",
"f+f+f+f+g+h+i+j+k+4 l+4 m+n+o+p+f+f+f+q+r+s+f+t+u+f+v+w+c x+y+z+f+A+f+f+f+f+f+f+f+f+f+",
"B+B+B+B+B+C+D+E+F+G+G+H+I+J+K+L+B+B+B+M+N+O+B+P+Q+B+R+B+S+T+B+U+B+B+B+B+B+B+B+B+B+B+B+",
"V+V+V+V+V+V+V+V+V+V+V+V+V+V+V+V+V+V+V+V+V+W+W+X+V+Y+V+V+V+V+V+V+V+V+V+V+V+V+V+V+V+V+V+"};
