/* XPM */
static char *git[] = {
/* columns rows colors chars-per-pixel */
"24 24 2 1 ",
"  c #F05033",
". c None",
/* pixels */
"...........  ...........",
"..........    ..........",
".........      .........",
"..........      ........",
"....... ...      .......",
"......   ....     ......",
".....     ....     .....",
"....      ....      ....",
"...        ....      ...",
"..         .....      ..",
".          .. ....     .",
"           ..  ....     ",
"           ..  ....     ",
".          ..   ..     .",
"..         ..         ..",
"...        ..        ...",
"....      ....      ....",
".....     ....     .....",
"......     ..     ......",
".......          .......",
"........        ........",
".........      .........",
"..........    ..........",
"...........  ..........."
};
