/* XPM */
static char *h_split[] = {
/* columns rows colors chars-per-pixel */
"24 24 115 2 ",
"   c black",
".  c #040404",
"X  c gray2",
"o  c #070707",
"O  c #111111",
"+  c gray7",
"@  c #151515",
"#  c #161616",
"$  c gray9",
"%  c #181818",
"&  c #606060",
"*  c gray50",
"=  c #808080",
"-  c #838383",
";  c gray52",
":  c #888888",
">  c gray55",
",  c #8D8D8D",
"<  c #8E8E8E",
"1  c gray56",
"2  c #909090",
"3  c gray57",
"4  c #929292",
"5  c #939393",
"6  c gray58",
"7  c #959595",
"8  c gray59",
"9  c #979797",
"0  c #989898",
"q  c gray60",
"w  c #9A9A9A",
"e  c gray63",
"r  c #A4A4A4",
"t  c #A5A5A5",
"y  c gray65",
"u  c #A7A7A7",
"i  c #A9A9A9",
"p  c #AAAAAA",
"a  c gray67",
"s  c #ACACAC",
"d  c gray68",
"f  c #AFAFAF",
"g  c gray69",
"h  c #B2B2B2",
"j  c gray70",
"k  c #B4B4B4",
"l  c gray71",
"z  c #B6B6B6",
"x  c #B7B7B7",
"c  c gray72",
"v  c gray73",
"b  c #BBBBBB",
"n  c gray74",
"m  c gray75",
"M  c #C0C0C0",
"N  c gray76",
"B  c #C3C3C3",
"V  c gray77",
"C  c #C5C5C5",
"Z  c #C6C6C6",
"A  c gray78",
"S  c #C8C8C8",
"D  c gray79",
"F  c #CACACA",
"G  c #CBCBCB",
"H  c gray80",
"J  c #CDCDCD",
"K  c #CECECE",
"L  c gray81",
"P  c #D0D0D0",
"I  c gray82",
"U  c #D2D2D2",
"Y  c LightGray",
"T  c gray83",
"R  c #D5D5D5",
"E  c gray84",
"W  c #D7D7D7",
"Q  c #D8D8D8",
"!  c gray85",
"~  c #DADADA",
"^  c gray86",
"/  c gainsboro",
"(  c #DDDDDD",
")  c gray87",
"_  c #DFDFDF",
"`  c gray88",
"'  c #E1E1E1",
"]  c #E2E2E2",
"[  c gray89",
"{  c #E4E4E4",
"}  c gray90",
"|  c #E6E6E6",
" . c #E7E7E7",
".. c gray91",
"X. c #E9E9E9",
"o. c #EAEAEA",
"O. c gray92",
"+. c #ECECEC",
"@. c gray93",
"#. c #EEEEEE",
"$. c #EFEFEF",
"%. c gray94",
"&. c gray95",
"*. c #F3F3F3",
"=. c #F4F4F4",
"-. c gray96",
";. c #F6F6F6",
":. c gray97",
">. c #F8F8F8",
",. c #F9F9F9",
"<. c gray98",
"1. c #FBFBFB",
"2. c gray99",
"3. c #FDFDFD",
"4. c None",
/* pixels */
"r r r r r r r r r r r r r r r r r r r r r r 4.4.",
"r G H G G G G Z Z Z N N N N b b c c c k W & 4.4.",
"r ` 3.3.<.<.:.:.:.*.*.*.#.#.#.o. . .` `  .& 4.4.",
"r ) 3.<.<.:.:.:.*.*.#.#.#.o.o. . . .` ) ` & 4.4.",
"r ) <.<.<.:.*.*.*.*.5 , o.o. . .` ` ` ) ` & 4.4.",
"r ) :.:.:.:.:.*.#.9   o 5  . .` ` ) ) ) ` & 4.4.",
"r ) :.:.*.*.*.#.5 o     o , ` ` ) ) ~ ~ ) & 4.4.",
"r ~ :.:.*.*.#.p # + % # + # r ` ) ~ ~ W ) & 4.4.",
"r ~ :.*.*.#.#.o.o.o. . .` ` ` ) ~ ~ W W ~ & 4.4.",
"r W *.:.*.#.#.o.o. . .` ` ) ) ~ ~ ~ W I W & 4.4.",
"r b c k h k h h f f f f p p p p r r r r c & 4.4.",
"r k 0 0 0 9 9 9 9 5 5 5 5 5 5 , 5 , , , f & 4.4.",
"r W #.#.o.o. . .` ) ) ~ ~ ~ W W W I H I W & 4.4.",
"r I o.o.o. .` ` ` ) ) ~ W W W I I H H H I & 4.4.",
"r I o.o. .` ` r % + # # + # 9 H I H G G I & 4.4.",
"r H  . . .` ) ) : o     o - I I H G G G I & 4.4.",
"r H  .` ` ` ) ) ~ :   o - I I H H G Z G H & 4.4.",
"r G  .` ` ` ) ~ ~ W - * I H H G G Z Z Z H & 4.4.",
"r G ` ` ) ) ~ W W I W I I H H G G Z Z Z I & 4.4.",
"r Z ` ) ~ ~ W W W I H H H H G Z Z Z N N H & 4.4.",
"r ` o.o. . .` ` ` ` ` ) ) ) ~ ~ W ~ W W ~ & 4.4.",
"r                                         & 4.4.",
"4.4.4.4.4.4.4.4.4.4.4.4.4.4.4.4.4.4.4.4.4.4.4.4.",
"4.4.4.4.4.4.4.4.4.4.4.4.4.4.4.4.4.4.4.4.4.4.4.4."
};
