/* XPM */
static char *linum[] = {
/* columns rows colors chars-per-pixel */
"24 24 256 2 ",
"   c black",
".  c #800000",
"X  c #008000",
"o  c #808000",
"O  c navy",
"+  c #800080",
"@  c #008080",
"#  c #C0C0C0",
"$  c #808080",
"%  c red",
"&  c green",
"*  c yellow",
"=  c blue",
"-  c magenta",
";  c cyan",
":  c gray100",
">  c #3F5F3F",
",  c #5F5F3F",
"<  c #7F5F3F",
"1  c #9F5F3F",
"2  c #BF5F3F",
"3  c #DF5F3F",
"4  c #FF5F3F",
"5  c #3F7F3F",
"6  c #5F7F3F",
"7  c #7F7F3F",
"8  c #9F7F3F",
"9  c #BF7F3F",
"0  c #DF7F3F",
"q  c #FF7F3F",
"w  c #3F9F3F",
"e  c #5F9F3F",
"r  c #7F9F3F",
"t  c #9F9F3F",
"y  c #BF9F3F",
"u  c #DF9F3F",
"i  c #FF9F3F",
"p  c #3FBF3F",
"a  c #5FBF3F",
"s  c #7FBF3F",
"d  c #9FBF3F",
"f  c #BFBF3F",
"g  c #DFBF3F",
"h  c #FFBF3F",
"j  c #3FDF3F",
"k  c #5FDF3F",
"l  c #7FDF3F",
"z  c #9FDF3F",
"x  c #BFDF3F",
"c  c #DFDF3F",
"v  c #FFDF3F",
"b  c #3FFF3F",
"n  c #5FFF3F",
"m  c #7FFF3F",
"M  c #9FFF3F",
"N  c #BFFF3F",
"B  c #DFFF3F",
"V  c #FFFF3F",
"C  c #3F3F5F",
"Z  c #5F3F5F",
"A  c #7F3F5F",
"S  c #9F3F5F",
"D  c #BF3F5F",
"F  c #DF3F5F",
"G  c #FF3F5F",
"H  c #3F5F5F",
"J  c #5F5F5F",
"K  c #7F5F5F",
"L  c #9F5F5F",
"P  c #BF5F5F",
"I  c #DF5F5F",
"U  c #FF5F5F",
"Y  c #3F7F5F",
"T  c #5F7F5F",
"R  c #7F7F5F",
"E  c #9F7F5F",
"W  c #BF7F5F",
"Q  c #DF7F5F",
"!  c #FF7F5F",
"~  c #3F9F5F",
"^  c #5F9F5F",
"/  c #7F9F5F",
"(  c #9F9F5F",
")  c #BF9F5F",
"_  c #DF9F5F",
"`  c #FF9F5F",
"'  c #3FBF5F",
"]  c #5FBF5F",
"[  c #7FBF5F",
"{  c #9FBF5F",
"}  c #BFBF5F",
"|  c #DFBF5F",
" . c #FFBF5F",
".. c #3FDF5F",
"X. c #5FDF5F",
"o. c #7FDF5F",
"O. c #9FDF5F",
"+. c #BFDF5F",
"@. c #DFDF5F",
"#. c #FFDF5F",
"$. c #3FFF5F",
"%. c #5FFF5F",
"&. c #7FFF5F",
"*. c #9FFF5F",
"=. c #BFFF5F",
"-. c #DFFF5F",
";. c #FFFF5F",
":. c #3F3F7F",
">. c #5F3F7F",
",. c #7F3F7F",
"<. c #9F3F7F",
"1. c #BF3F7F",
"2. c #DF3F7F",
"3. c #FF3F7F",
"4. c #3F5F7F",
"5. c #5F5F7F",
"6. c #7F5F7F",
"7. c #9F5F7F",
"8. c #BF5F7F",
"9. c #DF5F7F",
"0. c #FF5F7F",
"q. c #3F7F7F",
"w. c #5F7F7F",
"e. c gray50",
"r. c #9F7F7F",
"t. c #BF7F7F",
"y. c #DF7F7F",
"u. c #FF7F7F",
"i. c #3F9F7F",
"p. c #5F9F7F",
"a. c #7F9F7F",
"s. c #9F9F7F",
"d. c #BF9F7F",
"f. c #DF9F7F",
"g. c #FF9F7F",
"h. c #3FBF7F",
"j. c #5FBF7F",
"k. c #7FBF7F",
"l. c #9FBF7F",
"z. c #BFBF7F",
"x. c #DFBF7F",
"c. c #FFBF7F",
"v. c #3FDF7F",
"b. c #5FDF7F",
"n. c #7FDF7F",
"m. c #9FDF7F",
"M. c #BFDF7F",
"N. c #DFDF7F",
"B. c #FFDF7F",
"V. c #3FFF7F",
"C. c #5FFF7F",
"Z. c #7FFF7F",
"A. c #9FFF7F",
"S. c #BFFF7F",
"D. c #DFFF7F",
"F. c #FFFF7F",
"G. c #3F3F9F",
"H. c #5F3F9F",
"J. c #7F3F9F",
"K. c #9F3F9F",
"L. c #BF3F9F",
"P. c #DF3F9F",
"I. c #FF3F9F",
"U. c #3F5F9F",
"Y. c #5F5F9F",
"T. c #7F5F9F",
"R. c #9F5F9F",
"E. c #BF5F9F",
"W. c #DF5F9F",
"Q. c #FF5F9F",
"!. c #3F7F9F",
"~. c #5F7F9F",
"^. c #7F7F9F",
"/. c #9F7F9F",
"(. c #BF7F9F",
"). c #DF7F9F",
"_. c #FF7F9F",
"`. c #3F9F9F",
"'. c #5F9F9F",
"]. c #7F9F9F",
"[. c #9F9F9F",
"{. c #BF9F9F",
"}. c #DF9F9F",
"|. c #FF9F9F",
" X c #3FBF9F",
".X c #5FBF9F",
"XX c #7FBF9F",
"oX c #9FBF9F",
"OX c #BFBF9F",
"+X c #DFBF9F",
"@X c #FFBF9F",
"#X c #3FDF9F",
"$X c #5FDF9F",
"%X c #7FDF9F",
"&X c #9FDF9F",
"*X c #BFDF9F",
"=X c #DFDF9F",
"-X c #FFDF9F",
";X c #3FFF9F",
":X c #5FFF9F",
">X c #7FFF9F",
",X c #9FFF9F",
"<X c #BFFF9F",
"1X c #DFFF9F",
"2X c #FFFF9F",
"3X c #3F3FBF",
"4X c #5F3FBF",
"5X c #7F3FBF",
"6X c #9F3FBF",
"7X c #BF3FBF",
"8X c #DF3FBF",
"9X c #FF3FBF",
"0X c #3F5FBF",
"qX c #5F5FBF",
"wX c #7F5FBF",
"eX c #9F5FBF",
"rX c #BF5FBF",
"tX c #DF5FBF",
"yX c #FF5FBF",
"uX c #3F7FBF",
"iX c #5F7FBF",
"pX c #7F7FBF",
"aX c #9F7FBF",
"sX c #BF7FBF",
"dX c #DF7FBF",
"fX c #FF7FBF",
"gX c #3F9FBF",
"hX c #5F9FBF",
"jX c #7F9FBF",
"kX c #9F9FBF",
"lX c #BF9FBF",
"zX c #DF9FBF",
"xX c #FF9FBF",
"cX c #3FBFBF",
"vX c #5FBFBF",
"bX c #7FBFBF",
"nX c #9FBFBF",
"mX c gray75",
"MX c #DFBFBF",
"NX c #FFBFBF",
"BX c #3FDFBF",
"VX c #5FDFBF",
"CX c #7FDFBF",
"ZX c #9FDFBF",
"AX c #BFDFBF",
"SX c #DFDFBF",
"DX c #FFFBF0",
"FX c #A0A0A4",
"GX c #808080",
"HX c red",
"JX c green",
"KX c yellow",
"LX c blue",
"PX c magenta",
"IX c cyan",
"UX c gray100",
/* pixels */
"# # # # # # # # # # # # # # # # # # # # # # # # ",
"# : : : : : : : : : : : : : : : : : : : : : : # ",
"# : # # # # # # # # # # # # # # # # # # # # $ # ",
"# : # # # # # # # # # # # # # # # # # # # # $ # ",
"# : # # # # # # # # # # # # # # # # # # # # $ # ",
"# : # # # # # # # # # # # # # # # # # # # # $ # ",
"# : # # # # % # # # # O O # # O O O # # # # $ # ",
"# : # # # % % # # # # O O # # O # # O # # # $ # ",
"# : # # # # % # # # O # # O # O O O # # # # $ # ",
"# : # # # # % # # # O O O O # O # # O # # # $ # ",
"# : # # # # % # # # O # # O # O O O # # # # $ # ",
"# : # # # # # # # # # # # # # # # # # # # # $ # ",
"# : # # # # # # # # # # # # # # # # # # # # $ # ",
"# : # # # % % # # # # O O # # O O O # # # # $ # ",
"# : # # # # # % # # O # # O # O # # O # # # $ # ",
"# : # # # # % # # # O # # # # O # # O # # # $ # ",
"# : # # # % # # # # O # # O # O # # O # # # $ # ",
"# : # # # % % % # # # O O # # O O O # # # # $ # ",
"# : # # # # # # # # # # # # # # # # # # # # $ # ",
"# : # # # # # # # # # # # # # # # # # # # # $ # ",
"# : # # # # # # # # # # # # # # # # # # # # $ # ",
"# : # # # # # # # # # # # # # # # # # # # # $ # ",
"# $ $ $ $ $ $ $ $ $ $ $ $ $ $ $ $ $ $ $ $ $ $ # ",
"# # # # # # # # # # # # # # # # # # # # # # # # "
};
