/* XPM */
static char *list[] = {
/* columns rows colors chars-per-pixel */
"24 24 16 1 ",
"  c #BBBBBB",
". c gray40",
"X c #505050",
"o c black",
"O c gray100",
"+ c #9999FF",
"@ c #666699",
"# c gray80",
"$ c #827F00",
"% c yellow",
"& c red",
"* c magenta",
"= c green",
"- c blue",
"; c #4C4C4C",
": c None",
/* pixels */
"::::::::::::::::::::::::",
"::::::::::::::::::::::::",
" ...................... ",
"XooooooooooooooooooooooX",
"XoO+++++++++++++++++++oX",
"Xo@@@@@@@@@@@@@@@@@@@@oX",
"Xo#$#O#%#&#*#=#-#o#&##oX",
"Xo....................oX",
"XoOOOOOOO.############oX",
"XoO;;;;;O.#;;;#;;;;;##oX",
"XoOOOOOOO.############oX",
"XoO;;;;;O.#;;;#;;;####oX",
"XoOOOOOOO.############oX",
"XoO;;;;;O.#;;;#;;;;;;#oX",
"XoOOOOOOO.############oX",
"XoO;;;;;O.#;;;#;;;;###oX",
"XoOOOOOOO.############oX",
"XoOOOOOOO.#;;;#;;#####oX",
"XoOOOOOOO.############oX",
"XoOOOOOOO.############oX",
"XooooooooooooooooooooooX",
" ...................... ",
"::::::::::::::::::::::::",
"::::::::::::::::::::::::"
};
