/* XPM */
static char *maximize[] = {
/* columns rows colors chars-per-pixel */
"18 18 13 1 ",
"  c black",
". c #010101",
"X c #808080",
"o c gray82",
"O c #D2D1D2",
"+ c #D2D2D2",
"@ c #D2D2D3",
"# c LightGray",
"$ c gray83",
"% c #D5D5D5",
"& c gray84",
"* c #D7D7D7",
"= c gray100",
/* pixels */
"******$*****$*****",
"##################",
"o###o####o#######o",
"###########ooo###o",
"o##o          ##o#",
"oooo ======== ##oo",
"#ooo X      X oo#o",
"oooo ======== oooo",
"oooo ======== ##oo",
"oooo ======== oooo",
"oo#o ======== oooo",
"o### ======== ##o#",
"###* ======== *##*",
"****          ***#",
"**#****#**#*#*****",
"*#**#**********#*#",
"#***#*#***#*#***#*",
"***#*****#*****#**"
};
