/* XPM */
static char *minimize[] = {
/* columns rows colors chars-per-pixel */
"18 18 13 1 ",
"  c black",
". c #010101",
"X c gray82",
"o c #D2D2D2",
"O c #D2D2D3",
"+ c #D3D2D3",
"@ c LightGray",
"# c gray83",
"$ c #D5D4D5",
"% c #D5D5D5",
"& c gray84",
"* c #D7D7D7",
"= c gray100",
/* pixels */
"******************",
"oo*oooo*oooooooooo",
"ooooooooooo*oooooo",
"ooooo*ooooooooo*oo",
"oooo          oooo",
"ooXo ======== ooXo",
"oXoX ======== ooXX",
"oXXX          XoXX",
"XXXXXXXXooXXXXXXXX",
"XXXXXXXXXoXXXXXXXX",
"XXooXXXXXXXoooXXXX",
"oooooooooooooooooo",
"###*o########o*#o*",
"**#********#******",
"*#***#*#****#*#**#",
"***#*#***##***#**#",
"#*#***#*#***#*#**#",
"#***#*#***#*#*****"
};
