/* XPM */
static char * C:\Users\jim_cheung\Desktop\baby_xpm[] = {
"25 15 190 2",
"  	c None",
". 	c #522244",
"+ 	c #522345",
"@ 	c #234652",
"# 	c #00172B",
"$ 	c #002C3F",
"% 	c #003144",
"& 	c #002844",
"* 	c #002D4D",
"= 	c #1F6482",
"- 	c #89AFBA",
"; 	c #8D828F",
"> 	c #BF1119",
", 	c #B45F60",
"' 	c #28454F",
") 	c #002230",
"! 	c #002B3A",
"~ 	c #244B56",
"{ 	c #2D5262",
"] 	c #235269",
"^ 	c #2A627D",
"/ 	c #6593A5",
"( 	c #A0B3BA",
"_ 	c #F52A02",
": 	c #F22901",
"< 	c #81200D",
"[ 	c #C3A1A4",
"} 	c #465B69",
"| 	c #1E404E",
"1 	c #374B53",
"2 	c #605F66",
"3 	c #676572",
"4 	c #767683",
"5 	c #778191",
"6 	c #7691A4",
"7 	c #84A3B0",
"8 	c #FC7800",
"9 	c #AD5200",
"0 	c #966742",
"a 	c #465B6B",
"b 	c #505F6E",
"c 	c #646068",
"d 	c #A5797A",
"e 	c #C18786",
"f 	c #C18C8C",
"g 	c #C29297",
"h 	c #AB8F9A",
"i 	c #7B899D",
"j 	c #6F94A6",
"k 	c #FBA500",
"l 	c #F29F00",
"m 	c #7B5000",
"n 	c #4F513B",
"o 	c #03293A",
"p 	c #505562",
"q 	c #7B6068",
"r 	c #BC7F80",
"s 	c #D78F8D",
"t 	c #E39C9A",
"u 	c #E4A1A0",
"v 	c #DBA4A7",
"w 	c #AE9AA6",
"x 	c #7890A3",
"y 	c #FCA500",
"z 	c #F0D300",
"A 	c #BDA600",
"B 	c #756700",
"C 	c #103137",
"D 	c #555E66",
"E 	c #877079",
"F 	c #765B63",
"G 	c #BA8080",
"H 	c #D78E8F",
"I 	c #DF9A98",
"J 	c #E6A09E",
"K 	c #EEAEAD",
"L 	c #D1ABAE",
"M 	c #6C869A",
"N 	c #B4BF00",
"O 	c #767D00",
"P 	c #585D00",
"Q 	c #4D555B",
"R 	c #CBB8AC",
"S 	c #AE8084",
"T 	c #765B60",
"U 	c #AA7476",
"V 	c #D18A8B",
"W 	c #D29290",
"X 	c #CD8F8F",
"Y 	c #E4AAA7",
"Z 	c #C6AAAD",
"` 	c #426C89",
" .	c #B5BF00",
"..	c #4D9801",
"+.	c #4E9802",
"@.	c #4E9801",
"#.	c #274D01",
"$.	c #264A00",
"%.	c #C7B4AD",
"&.	c #F4CFBD",
"*.	c #65545F",
"=.	c #09243A",
"-.	c #855E66",
";.	c #CD8587",
">.	c #BC7F81",
",.	c #997078",
"'.	c #D59EA0",
").	c #C6B1AE",
"!.	c #2F5E7D",
"~.	c #2CCB13",
"{.	c #156309",
"].	c #9A9A74",
"^.	c #FFD5C3",
"/.	c #B5777E",
"(.	c #7E5965",
"_.	c #B6757B",
":.	c #E19395",
"<.	c #AD787F",
"[.	c #002546",
"}.	c #9F8891",
"|.	c #D0B6B2",
"1.	c #345F7A",
"2.	c #20D15C",
"3.	c #0F672D",
"4.	c #0F662D",
"5.	c #75A479",
"6.	c #FECABB",
"7.	c #E18D8C",
"8.	c #D07F82",
"9.	c #D27F83",
"0.	c #F0A9A2",
"a.	c #E89C9D",
"b.	c #CF8B90",
"c.	c #FECBBE",
"d.	c #D1C6B8",
"e.	c #52687A",
"f.	c #0EA7CB",
"g.	c #0EA6CB",
"h.	c #097189",
"i.	c #065163",
"j.	c #FDCDBF",
"k.	c #E78F8B",
"l.	c #C97A7E",
"m.	c #CA7579",
"n.	c #F4B0A8",
"o.	c #E49394",
"p.	c #F8B5AC",
"q.	c #FFD7C3",
"r.	c #DBC5B9",
"s.	c #2393B4",
"t.	c #1E7FF7",
"u.	c #1E80F7",
"v.	c #1763C0",
"w.	c #0E3E79",
"x.	c #ECB8B0",
"y.	c #DC8080",
"z.	c #BE7176",
"A.	c #9B5360",
"B.	c #BE6D73",
"C.	c #DE8B8C",
"D.	c #FAB6AA",
"E.	c #FFDEC8",
"F.	c #A8BBDE",
"G.	c #5247F7",
"H.	c #282279",
"I.	c #7C628B",
"J.	c #BE6E76",
"K.	c #9C5864",
"L.	c #954052",
"M.	c #B5636F",
"N.	c #DD8E8D",
"O.	c #F5ADA7",
"P.	c #EAC4C6",
"Q.	c #5536D9",
"R.	c #2B1B6D",
"S.	c #291A6A",
"T.	c #6B4461",
"U.	c #935963",
"V.	c #B86974",
"W.	c #BA6C72",
"X.	c #CA8284",
"Y.	c #CB91A6",
"Z.	c #8B6ED7",
"`.	c #263498",
" +	c #1D2774",
".+	c #12194A",
"++	c #30284B",
"@+	c #8B596C",
"#+	c #9A6775",
"$+	c #644B69",
". . . . . . . + @ # $ % & * = - ; . . . . . . . . ",
"> > > > > > > , ' ) ! ~ { ] ^ / ( > > > > > > > > ",
"_ _ _ _ _ : < [ } | 1 2 3 4 5 6 7 _ _ _ _ _ _ _ _ ",
"8 8 8 8 8 9 0 a b c d e f g h i j 8 8 8 8 8 8 8 8 ",
"k k k k l m n o p q r s t u v w x k k k k k y k y ",
"z z z z A B C D E F G H I J K L M z z z z z z z z ",
"N N N N O P Q R S T U V W X Y Z ` N N N N N  .N N ",
"..+.+.@.#.$.%.&.*.=.-.;.>.,.'.).!...+.+.@.+.+.+.+.",
"~.~.~.~.{.{.].^./.(._.:.<.[.}.|.1.~.~.~.~.~.~.~.~.",
"2.2.2.2.3.4.5.6.7.8.9.0.a.b.c.d.e.2.2.2.2.2.2.2.2.",
"f.f.f.g.h.i.i.j.k.l.m.n.o.p.q.r.s.f.f.f.g.f.f.g.f.",
"t.u.u.t.v.w.w.x.y.z.A.B.C.D.E.F.u.t.u.u.t.u.u.u.u.",
"G.G.G.G.G.H.H.I.J.K.L.M.N.O.P.G.G.G.G.G.G.G.G.G.G.",
"Q.Q.Q.Q.Q.R.S.S.T.U.V.W.X.Y.Z.Q.Q.Q.Q.Q.Q.Q.Q.Q.Q.",
"`.`.`.`.`. +.+.+.+++@+#+$+`.`.`.`.`.`.`.`.`.`.`.`."};
