/* XPM */
static char * org_mode_xpm[] = {
"24 24 67 1",
" 	c None",
".	c #7D453C",
"+	c #7C463D",
"@	c #744B42",
"#	c #874035",
"$	c #923A2D",
"%	c #8A3E33",
"&	c #6D4F47",
"*	c #456565",
"=	c #4D605F",
"-	c #6D5049",
";	c #426668",
">	c #222222",
",	c #8B3E32",
"'	c #7C473D",
")	c #426666",
"!	c #3D696A",
"~	c #3F6869",
"{	c #496262",
"]	c #3E6565",
"^	c #242727",
"/	c #81443A",
"(	c #496261",
"_	c #628586",
":	c #9CB3B3",
"<	c #406B6C",
"[	c #466464",
"}	c #789697",
"|	c #FFFEFE",
"1	c #798989",
"2	c #3B6465",
"3	c #80443A",
"4	c #864136",
"5	c #605551",
"6	c #537A7B",
"7	c #638181",
"8	c #3E6768",
"9	c #66524C",
"0	c #754A41",
"a	c #8C3D31",
"b	c #3E696A",
"c	c #3E686A",
"d	c #864035",
"e	c #7C463C",
"f	c #575B57",
"g	c #5B5855",
"h	c #3D6A6A",
"i	c #3C686A",
"j	c #3E696B",
"k	c #3D6969",
"l	c #804339",
"m	c #913A2D",
"n	c #5A5956",
"o	c #903B2F",
"p	c #714C45",
"q	c #62554F",
"r	c #8F3C30",
"s	c #8D3D31",
"t	c #515E5C",
"u	c #893F33",
"v	c #416767",
"w	c #535E5A",
"x	c #505E5C",
"y	c #714D44",
"z	c #635550",
"A	c #3C696B",
"B	c #3D696B",
"                        ",
"                        ",
"                        ",
"                        ",
"       .+@              ",
"     #$$$%&*=-; >       ",
"    ,$$$')!!~{]^        ",
"   /$$$$(!!!_:<!        ",
"   $$$$$[!!!}|12        ",
"  3$$$4$5!!!!678!       ",
"  #$$$90a[!!!!!!!!bc    ",
"  d$$$e!fg!hijk!!!!!    ",
"  l$3m$n!!!     !!b     ",
"   opqrst!!             ",
"   0u~vwx!!             ",
"    yz!!!!!             ",
"      A!!!!!            ",
"        B!!!            ",
"          !!h           ",
"           kk           ",
"                        ",
"                        ",
"                        ",
"                        "};
