/* XPM */
static char *paredit[] = {
/* columns rows colors chars-per-pixel */
"24 24 26 1 ",
"  c #3C3C3C",
". c #434343",
"X c #4C4C4C",
"o c #565656",
"O c #5F5F5F",
"+ c #626262",
"@ c #6A6A6A",
"# c gray47",
"$ c #7C7C7C",
"% c #7E7E7E",
"& c #838383",
"* c #898989",
"= c gray60",
"- c #A4A4A4",
"; c #B4B4B4",
": c #B9B9B9",
"> c gray",
", c #C5C5C5",
"< c #CBCBCB",
"1 c #D7D7D7",
"2 c gray85",
"3 c #E7E7E7",
"4 c gray91",
"5 c gray93",
"6 c #F3F3F3",
"7 c gray99",
/* pixels */
"%%####################$%",
"%+                    +%",
"%+                    +%",
"%+          @         +%",
"$+         &6o        +%",
"%+        O6=         +%",
"$+        ,2          +%",
"%+       O7*          +%",
"%+       -6X          +%",
"%+       <1           +%",
"%+       3,           +%",
"%+       6;           +%",
"%+       6;           +%",
"$+       5:           +%",
"%+       2<           +%",
"$+       :3           +%",
"%+       &7+          +%",
"$+        3;          +%",
"%+        *6O         +%",
"$+         >2X        +%",
"%+         .;X        +%",
"$+                    +%",
"%+                    +%",
"%$####################$%"
};
