/* XPM */
static char *projectile[] = {
/* columns rows colors chars-per-pixel */
"24 24 18 1 ",
"  c #2F7338",
". c #3B7B44",
"X c #558D5C",
"o c #558D5D",
"O c #629569",
"+ c #6F9E75",
"@ c #96B89B",
"# c #A3C1A7",
"$ c #B0CAB3",
"% c #BDD3C0",
"& c #CBDCCD",
"* c #D8E4D9",
"= c #D8E5DA",
"- c #E5EEE6",
"; c #F2F6F2",
": c #F2F6F3",
"> c gray100",
", c None",
/* pixels */
",,,,,,,,,,,   ,,,,,,,,,,",
",,,,,,        ,,,,,,,,,,",
",             ,,,,,,,,,,",
"              ,         ",
"              ,         ",
"              ,         ",
"    XOOO      ,>>>>>>   ",
"    ;>>>;X    ,     >   ",
"    ;>%->%    ,     >   ",
"    ;>O+>&    ,     >   ",
"    ;>O+>&    ,   *>>>; ",
"    ;>=>>@    ,   .=>;X ",
"    ;>>;#     ,    .&X  ",
"    ;>O       , $$      ",
"    ;>O       ,$>>$     ",
"    ;>O       ,>>>>$    ",
"              ,>>>>*    ",
"              ,$>>*.    ",
"              , $=.     ",
"              ,         ",
"              ,         ",
",             ,,,,,,,,,,",
",,,,,,        ,,,,,,,,,,",
",,,,,,,,,,,   ,,,,,,,,,,"
};
