/* XPM */
static char * C:\Users\jim_cheung\Desktop\sosad_xpm[] = {
"25 15 32 1",
" 	c None",
".	c #522244",
"+	c #000000",
"@	c #BF1119",
"#	c #F52A02",
"$	c #FFE700",
"%	c #EFD600",
"&	c #FC7800",
"*	c #FFC642",
"=	c #FBA500",
"-	c #FFFF66",
";	c #FCA500",
">	c #F0D300",
",	c #FFF7AD",
"'	c #B4BF00",
")	c #FFAD00",
"!	c #4D9801",
"~	c #4E9802",
"{	c #4E9801",
"]	c #DE9400",
"^	c #2CCB13",
"/	c #20D15C",
"(	c #0EA7CB",
"_	c #0EA6CB",
":	c #FFEF42",
"<	c #1E7FF7",
"[	c #1E80F7",
"}	c #FFE708",
"|	c #5247F7",
"1	c #5536D9",
"2	c #263498",
"3	c #0000FF",
".........+.+++++++.+.....",
"@@@@@@@@+++++++++++++@@@@",
"########++++$$$%%++++####",
"&&&&&&&&++$$$$$$%%*++&&&&",
"========+$$+++-+++%*+=;=;",
">>>>>>>++$-,+,-,+%%*++>>>",
"''''''++$,,+,,-,$+%*)++''",
"!~~{~++$,,,,,,--$%%**]++~",
"^^^^++-,-+++++++++++)*]++",
"////+$,-+$----$$$%*)+)*]+",
"(((_+$,+:$$--,,,:%*))+)]+",
"<[[<+$$-$%++$$}%%++]]))]+",
"|||||+$$++$%%%%%*))++]]+|",
"111111++11+$****)]+11++11",
"22222332222+))]]]+2222222"};
