/* XPM */
static char *terminal[] = {
/* columns rows colors chars-per-pixel */
"24 24 77 1 ",
"  c #1E2223",
". c #252A2B",
"X c #2B2E2E",
"o c #2E3436",
"O c #313739",
"+ c #33393B",
"@ c #343A3C",
"# c #353B3D",
"$ c #363C3E",
"% c #373C3E",
"& c #393F41",
"* c #3D4344",
"= c #404344",
"- c #404547",
"; c #404648",
": c #414648",
"> c #414749",
", c #424749",
"< c #43484A",
"1 c #444A4C",
"2 c #494D4F",
"3 c #515455",
"4 c #575C5E",
"5 c #5A5D5E",
"6 c #5C6163",
"7 c #5D6263",
"8 c #5E6365",
"9 c #616667",
"0 c #656868",
"q c #6B6D69",
"w c #70726E",
"e c #6F7172",
"r c #707475",
"t c #787A76",
"y c #7B7D79",
"u c #797C7C",
"i c #80827D",
"p c #81837E",
"a c #82847F",
"s c #858682",
"d c #808485",
"f c #838586",
"g c #838687",
"h c #8A8C87",
"j c #8D9090",
"k c #969793",
"l c #979894",
"z c #989995",
"x c #9D9E9A",
"c c #AAADAD",
"v c #AFB0AD",
"b c #B0B1AE",
"n c #ADB0B0",
"m c #B1B3B4",
"M c #B8BBBB",
"N c #BDBEBF",
"B c #BFC0C1",
"V c #BFC1C1",
"C c #C8CACA",
"Z c #CCCECE",
"A c #CDCECF",
"S c #D4D6D6",
"D c #DADAD8",
"F c #DBDDDD",
"G c #DCDDDE",
"H c #E0E1E1",
"J c #E3E3E1",
"K c #E1E2E2",
"L c #E6E6E4",
"P c #E7E8E6",
"I c #EEEEEC",
"U c #F3F3F3",
"Y c #F9F9F8",
"T c #F9F9F9",
"R c gray98",
"E c gray100",
"W c None",
/* pixels */
"WWWWWWWWWWWWWWWWWWWWWWWW",
"WxzlllzllzllzkkzllzkzzxW",
"WzLIIIIIIIIIIIIIIIIIILzW",
"WlIjdgdgffffffffffdgjIkW",
"WlIuggggggggfggggggguIzW",
"WlIedgddddddgddddgddeIkW",
"WlI0rrrrrrrrrrrrrrrr0IlW",
"WlI5rrrrrrrrrrrrrrrr5IzW",
"WlI36gZ96666677766663IlW",
"WlI=6SEA866666666666=IzW",
"WlI o>GEN><111,-**Oo IlW",
"WlI %%2KEm%%%%%%%%%% IlW",
"WlI oo*KEvoooooooooo IlW",
"WlI +<GEM%++++#+@@@@ IlW",
"WlI oCEBO1cccooooooo IlW",
"WlI O9B%O4EEEOOOOOOO IlW",
"WlI oooooooooooooooo IlW",
"WlIX................XIlW",
"WzLKDDDDDDDDDDDDDDDDKLzW",
"WxzlllllllllllllllllzzxW",
"WWWWWsbPUYYYYYYUPviWWWWW",
"WWWWWWWwyshklhatqWWWWWWW",
"WWWWWWWWWWWWWWWWWWWWWWWW",
"WWWWWWWWWWWWWWWWWWWWWWWW"
};
