/* XPM */
static char *tree[] = {
/* columns rows colors chars-per-pixel */
"24 24 4 1 ",
"  c black",
". c #DF421E",
"X c gray100",
"o c None",
/* pixels */
"oooooooooooooooooooooooo",
"ooooooooooo....ooooooooo",
"ooooooooooo.XX.ooooooooo",
"ooooooooooo.XX.ooooooooo",
"ooooooooooo....ooooooooo",
"oooooooooooooo ooooooooo",
"oooooooooooooo ooooooooo",
"ooooooooooooooo oooooooo",
"oooooooo oooooo oooooooo",
"ooooooooo oooooo ooooooo",
"oooooooooo o ooo ooooooo",
"ooooooooooo  oooo oooooo",
"oooooooooo   oooo oooooo",
"ooooooooooooooooo....ooo",
"ooooooooooooooooo.XX.ooo",
"oooooooooooooo   .XX.ooo",
"oo....ooo    oooo....ooo",
"oo.XX.  oooooooooooooooo",
"oo.XX.oooooooooooooooooo",
"oo....oooooooooooooooooo",
"oooooooooooooooooooooooo",
"oooooooooooooooooooooooo",
"oooooooooooooooooooooooo",
"oooooooooooooooooooooooo"
};
