/* XPM */
static char *v_split[] = {
/* columns rows colors chars-per-pixel */
"24 24 115 2 ",
"   c black",
".  c #040404",
"X  c gray2",
"o  c #070707",
"O  c #111111",
"+  c gray7",
"@  c #151515",
"#  c #161616",
"$  c gray9",
"%  c #181818",
"&  c #606060",
"*  c gray50",
"=  c #818181",
"-  c #838383",
";  c gray52",
":  c #898989",
">  c #8D8D8D",
",  c gray56",
"<  c #909090",
"1  c #929292",
"2  c #939393",
"3  c gray58",
"4  c #959595",
"5  c gray59",
"6  c #979797",
"7  c #989898",
"8  c gray60",
"9  c #9A9A9A",
"0  c #9B9B9B",
"q  c gray61",
"w  c #9D9D9D",
"e  c gray62",
"r  c #9F9F9F",
"t  c #A0A0A0",
"y  c gray63",
"u  c #A2A2A2",
"i  c gray64",
"p  c #A4A4A4",
"a  c #A5A5A5",
"s  c gray65",
"d  c #A7A7A7",
"f  c gray66",
"g  c #A9A9A9",
"h  c #AAAAAA",
"j  c gray67",
"k  c #ACACAC",
"l  c gray68",
"z  c #B6B6B6",
"x  c gray72",
"c  c gray73",
"v  c #BBBBBB",
"b  c gray74",
"n  c gray75",
"m  c #C0C0C0",
"M  c gray76",
"N  c #C3C3C3",
"B  c gray77",
"V  c #C5C5C5",
"C  c #C6C6C6",
"Z  c gray78",
"A  c #C8C8C8",
"S  c gray79",
"D  c #CACACA",
"F  c #CBCBCB",
"G  c gray80",
"H  c #CDCDCD",
"J  c #CECECE",
"K  c gray81",
"L  c #D0D0D0",
"P  c gray82",
"I  c #D2D2D2",
"U  c LightGray",
"Y  c gray83",
"T  c #D5D5D5",
"R  c gray84",
"E  c #D7D7D7",
"W  c #D8D8D8",
"Q  c gray85",
"!  c #DADADA",
"~  c gray86",
"^  c gainsboro",
"/  c #DDDDDD",
"(  c gray87",
")  c #DFDFDF",
"_  c gray88",
"`  c #E1E1E1",
"'  c #E2E2E2",
"]  c gray89",
"[  c #E4E4E4",
"{  c gray90",
"}  c #E6E6E6",
"|  c #E7E7E7",
" . c gray91",
".. c #E9E9E9",
"X. c #EAEAEA",
"o. c gray92",
"O. c #ECECEC",
"+. c gray93",
"@. c #EEEEEE",
"#. c #EFEFEF",
"$. c gray94",
"%. c #F1F1F1",
"&. c gray95",
"*. c #F3F3F3",
"=. c #F4F4F4",
"-. c gray96",
";. c #F6F6F6",
":. c gray97",
">. c #F8F8F8",
",. c #F9F9F9",
"<. c gray98",
"1. c #FBFBFB",
"2. c gray99",
"3. c #FDFDFD",
"4. c None",
/* pixels */
"p p p p p p p i p p i i p i i p p p p p p p 4.4.",
"p F G F F F F C C C h p M M b b x x x z R & 4.4.",
"p _ 3.3.<.<.:.:.:.*.k p @.@.@. .| | _ _ | & 4.4.",
"p ( 3.<.<.:.:.:.*.*.k i @.@. .| | | _ ( _ & 4.4.",
"p ( <.<.<.:.*.*.*.@.h i  . . .| _ _ _ ( _ & 4.4.",
"i ( :.:.:.:.:.*.@.@.h i  . .| _ _ ( ( ( _ & 4.4.",
"p ( :.:.*.*.*.@.@.@.h r  .| _ _ ( ( ~ ~ ( & 4.4.",
"p ~ :.:.*.*.@.h @. .h r | _ i _ ~ ~ ~ R ( & 4.4.",
"i ~ :.*.*.*.2 %  . .p i _ _ % : ~ ~ R R ~ & 4.4.",
"i R *.*.@.5 X +  . .p r _ _ + o : R R P ~ & 4.4.",
"i R *.@.2     %  .| p 0 ( ( #   X - P P R & 4.4.",
"i R @.@.2 X   # | _ i r ( ~ #     - P P R & 4.4.",
"p R @. . .5 X + _ ( i 0 ~ ~ + X ; P G P R & 4.4.",
"p P  .@. .| > % _ ( i 0 R R # - P P G G P & 4.4.",
"p P @.| | _ _ i ( ( i 5 R R 5 P G G F F R & 4.4.",
"p G | | | _ ( ( ~ ~ r 0 P R P G F F F F P & 4.4.",
"p G | | _ _ ( ( ~ R r 5 P P G G G F F C P & 4.4.",
"p G | _ ( ( ~ ~ ~ R 0 5 P G F F F F C C G & 4.4.",
"p C _ _ ( ~ ~ R R R 0 5 P G G F C C C M G & 4.4.",
"p F _ ( ~ ~ ~ R P P 0 5 G G F F C C C M G & 4.4.",
"p |  . .| | _ _ _ _ b z ~ ( ~ ~ R ~ R R ~ & 4.4.",
"p                                         & 4.4.",
"4.4.4.4.4.4.4.4.4.4.4.4.4.4.4.4.4.4.4.4.4.4.4.4.",
"4.4.4.4.4.4.4.4.4.4.4.4.4.4.4.4.4.4.4.4.4.4.4.4."
};
